<?xml version="1.0" encoding="UTF-8"?><svg xmlns="http://www.w3.org/2000/svg" viewBox="0 0 43.63 43.63"><defs><style>.d{fill:#fff;}</style></defs><g id="a"/><g id="b"><g id="c"><path class="d" d="M10.83,43.63H0V0H43.63V43.63h-10.47c.17-.27,.41-.52,.49-.81,.12-.47,.14-.97,.19-1.46,.14-1.5,.27-3,.43-4.49,.02-.19,.17-.42,.33-.52,1.62-1.02,2.94-2.33,3.81-4.04,.2-.4,.47-.58,.88-.68,.88-.19,1.75-.42,2.62-.63,.52-.12,.76-.45,.82-.99,.27-2.3,.56-4.61,.84-6.91,.05-.48-.16-.85-.62-1.03-.18-.07-.38-.12-.57-.17-1.05-.2-2.11-.38-3.15-.61-.26-.05-.59-.21-.71-.42-.7-1.26-1.6-2.36-2.7-3.27-.38-.32-.44-.59-.41-1.09,.1-1.84,.12-3.68,.07-5.53-.03-1.17-.67-2.05-1.83-2.38-.55-.16-1.17-.15-1.75-.14-3.26,.04-5.98,2.06-6.89,5.12-.11,.39-.13,.93-.4,1.11-.29,.19-.81,.05-1.24,.06-.4,.02-.64-.04-.8-.53-.59-1.85-2.47-3.14-4.32-3.06-2.01,.09-3.7,1.44-4.21,3.38-.07,.27-.2,.36-.44,.41-2.61,.47-4.82,1.67-6.57,3.68-1.27,1.45-2.25,3.06-2.69,4.96-.14,.59-.21,1.21-.32,1.85-.81-.28-1.37-.75-1.64-1.51-.14-.36-.2-.76-.28-1.15-.11-.47-.39-.73-.83-.76-.57-.04-1.03,.58-.91,1.3,.3,1.92,1.32,3.27,3.22,3.84,.31,.09,.4,.24,.46,.54,.22,1.01,.4,2.05,.76,3.02,.88,2.34,2.42,4.17,4.49,5.56,.16,.11,.33,.33,.35,.51,.19,1.75,.35,3.5,.53,5.26,.06,.58,.12,1.19,.67,1.57M17.51,3.93h-.01c0,.91-.02,1.8,0,2.7,.02,.62,.43,.97,.98,.89,.49-.07,.8-.47,.8-1.08,0-1.63,0-3.26,0-4.89,0-.18-.03-.36-.08-.54-.14-.49-.66-.74-1.14-.55-.42,.16-.54,.51-.55,.91,0,.85,0,1.71,0,2.57m5.39,3.65c0-.3,0-.59,0-.89,0-.31,.02-.62-.01-.93-.07-.76-.78-1.14-1.39-.76-.36,.22-.41,.59-.41,.96,0,1.06,0,2.14,0,3.2,0,.13,.02,.26,.04,.38,.1,.46,.39,.7,.86,.7,.55,0,.88-.32,.91-.94,.03-.58,0-1.16,0-1.73m-7.24,.9h-.02c0-.63,.03-1.27,0-1.9-.03-.47-.35-.74-.79-.78-.43-.03-.77,.21-.89,.67-.05,.19-.07,.39-.07,.58,0,.8,0,1.6,0,2.4,0,.3,0,.59,.04,.88,.09,.53,.43,.8,.89,.78,.49-.03,.82-.34,.85-.87,.02-.59,0-1.18,0-1.77"/><path d="M10.83,43.63c-.55-.39-.61-.99-.67-1.57-.18-1.76-.33-3.51-.53-5.26-.02-.18-.19-.4-.35-.51-2.07-1.39-3.62-3.22-4.49-5.56-.36-.97-.53-2-.76-3.02-.06-.3-.15-.45-.46-.54-1.9-.57-2.92-1.92-3.22-3.84-.11-.72,.34-1.34,.91-1.3,.45,.03,.73,.29,.83,.76,.09,.39,.15,.78,.28,1.15,.28,.76,.84,1.23,1.64,1.52,.11-.66,.19-1.27,.32-1.86,.43-1.9,1.42-3.51,2.69-4.96,1.75-2.01,3.96-3.2,6.57-3.68,.25-.05,.38-.14,.44-.41,.51-1.94,2.21-3.29,4.21-3.38,1.84-.08,3.72,1.21,4.32,3.06,.16,.49,.4,.55,.8,.53,.42-.01,.94,.13,1.24-.06,.26-.18,.28-.73,.4-1.11,.91-3.06,3.63-5.09,6.89-5.12,.59,0,1.2-.02,1.75,.14,1.16,.33,1.8,1.21,1.83,2.38,.05,1.84,.02,3.69-.07,5.53-.03,.5,.03,.78,.41,1.09,1.11,.91,2,2.01,2.7,3.27,.12,.21,.45,.37,.71,.42,1.04,.23,2.1,.41,3.15,.61,.19,.04,.38,.1,.57,.17,.46,.18,.67,.55,.62,1.03-.28,2.3-.57,4.61-.84,6.91-.06,.54-.3,.86-.82,.99-.87,.21-1.74,.43-2.62,.63-.41,.09-.68,.28-.88,.68-.88,1.71-2.19,3.02-3.81,4.04-.16,.1-.31,.33-.33,.52-.16,1.49-.29,3-.43,4.5-.05,.48-.07,.98-.19,1.46-.07,.3-.32,.55-.49,.81h-6.09c-.19-.31-.47-.61-.56-.95-.14-.51-.15-1.05-.21-1.58-.09-.95-.17-1.89-.25-2.8-.08-.04-.09-.05-.1-.05-2.59,0-5.18,0-7.77,0-.28,0-.31,.18-.33,.38-.09,.93-.14,1.86-.28,2.77-.11,.77,.04,1.64-.66,2.23m5.06-25.22c.34,0,.65-.03,.95,0,.55,.05,.84,.35,.84,.86,0,.51-.28,.82-.83,.89-.19,.03-.39,.03-.59,.03-2.66,0-5.33,0-7.99,0-.17,0-.34,0-.5-.03-.61-.09-.87-.39-.85-.95,.02-.53,.32-.79,.93-.81,.27-.01,.54,0,.84,0-.24-.49-.5-.88-.62-1.3-.11-.41-.3-.42-.63-.34-4.57,1.04-7.8,5.02-7.77,9.74,.02,3.65,1.58,6.52,4.7,8.46,.6,.37,.9,.81,.96,1.51,.14,1.67,.34,3.33,.5,5,.03,.27,.11,.35,.39,.35,.99-.02,1.97-.04,2.96,.01,.43,.02,.51-.13,.54-.51,.11-1.32,.24-2.64,.4-3.95,.08-.68,.23-.79,.9-.9,.14-.03,.28-.04,.42-.04,3.03,0,6.06-.02,9.09,0,.75,0,1.03,.24,1.12,.98,.17,1.34,.3,2.69,.43,4.04,.02,.28,.11,.39,.41,.38,1-.02,2-.03,3,0,.36,.02,.45-.09,.47-.44,.13-1.55,.26-3.11,.44-4.66,.07-.58,.07-1.23,.7-1.59,1.8-1.02,3.17-2.46,4.09-4.32,.19-.39,.49-.62,.92-.72,.82-.2,1.64-.4,2.46-.6,.26-.06,.38-.18,.4-.45,.04-.49,.1-.98,.17-1.47,.17-1.31,.34-2.62,.51-3.96-.14-.04-.27-.08-.41-.11-1.04-.2-2.07-.4-3.1-.59-.44-.08-.75-.3-.95-.69-.1-.19-.2-.37-.3-.56-.59-1.16-1.44-2.09-2.42-2.91-.05,.02-.07,.03-.07,.03-.08,.09-.16,.2-.25,.29-1.06,1.22-2.39,1.92-4.02,1.96-2.56,.06-4.75-1.67-5.36-4.17-.03-.12-.17-.28-.26-.28-.6-.03-1.21-.02-1.74-.02-.3,.62-.57,1.19-.88,1.84m11.69-4.88h.04c0-.79,.03-1.58,0-2.36-.03-.67-.28-.9-.95-.92-.34-.02-.68-.01-1.01,.01-2.45,.2-4.14,1.44-4.96,3.76-.73,2.11-.11,3.86,1.64,4.85,2.07,1.17,4.93-.2,5.23-2.56,.12-.91,.02-1.85,.02-2.78m-15.28,4.83c1.56,0,2.69-1.14,2.68-2.71,0-1.48-1.2-2.69-2.69-2.69s-2.72,1.24-2.71,2.78c.01,1.45,1.23,2.62,2.71,2.62"/><path d="M17.51,3.93c0-.85,0-1.71,0-2.57,0-.4,.13-.75,.55-.91,.48-.19,.99,.06,1.14,.55,.05,.18,.08,.36,.08,.54,0,1.63,0,3.26,0,4.89,0,.6-.31,1.01-.8,1.08-.55,.08-.96-.26-.98-.89-.03-.9,0-1.79,0-2.7"/><path d="M22.9,7.57c0,.57,.02,1.15,0,1.73-.03,.62-.36,.94-.91,.94-.47,0-.76-.24-.86-.71-.03-.12-.04-.25-.05-.38,0-1.06-.01-2.14,0-3.2,0-.37,.05-.74,.41-.96,.61-.38,1.32,0,1.39,.76,.03,.31,.01,.62,.01,.93v.89"/><path d="M15.65,8.47c0,.59,.02,1.18,0,1.77-.02,.53-.35,.84-.85,.87-.46,.02-.8-.25-.89-.78-.05-.29-.04-.58-.04-.88,0-.8,0-1.6,0-2.4,0-.19,.02-.4,.07-.58,.12-.46,.45-.7,.89-.67,.45,.03,.77,.31,.79,.78,.04,.63,0,1.27,0,1.9h.02"/><path class="d" d="M21.98,18.41c.31-.65,.58-1.21,.88-1.84,.54,0,1.14-.01,1.74,.02,.09,0,.23,.16,.26,.28,.61,2.5,2.79,4.23,5.36,4.17,1.62-.04,2.95-.74,4.02-1.96,.08-.09,.16-.2,.25-.29,0,0,.02-.01,.07-.03,.98,.81,1.83,1.74,2.42,2.91,.1,.19,.2,.37,.3,.56,.2,.39,.51,.61,.95,.69,1.03,.19,2.07,.4,3.1,.59,.14,.03,.27,.07,.41,.11-.17,1.34-.34,2.65-.51,3.96-.07,.49-.13,.98-.17,1.47-.02,.28-.14,.4-.4,.45-.82,.2-1.64,.4-2.46,.6-.43,.1-.73,.33-.92,.72-.92,1.86-2.29,3.3-4.09,4.32-.63,.36-.63,1.01-.7,1.59-.18,1.55-.31,3.11-.44,4.66-.03,.34-.11,.45-.47,.44-1-.03-2-.03-3,0-.3,0-.38-.1-.41-.38-.13-1.34-.26-2.7-.43-4.04-.09-.73-.37-.98-1.12-.98-3.03-.01-6.06,0-9.09,0-.14,0-.28,.01-.42,.04-.67,.11-.82,.22-.9,.9-.16,1.32-.29,2.64-.4,3.95-.03,.38-.12,.53-.54,.51-.98-.05-1.97-.03-2.96-.01-.28,0-.36-.08-.39-.35-.16-1.67-.35-3.33-.5-5-.06-.7-.36-1.14-.96-1.51-3.12-1.95-4.68-4.81-4.7-8.46-.03-4.72,3.2-8.7,7.77-9.74,.33-.07,.52-.06,.63,.34,.12,.42,.38,.8,.62,1.3-.3,0-.57-.01-.84,0-.62,.02-.91,.28-.93,.81-.03,.56,.23,.85,.85,.95,.17,.03,.34,.03,.5,.03,2.66,0,5.33,0,7.99,0,.2,0,.39,0,.59-.03,.55-.07,.83-.38,.83-.89,0-.51-.29-.81-.84-.86-.3-.03-.61,0-.95,0m9.05,6.09c0,.64,.24,.99,.74,1.05,.49,.07,.86-.22,1.01-.8,.03-.1,.04-.2,.06-.29,.11-.46,.43-.71,.88-.69,.44,.01,.77,.28,.87,.72,.03,.15,.05,.3,.1,.45,.13,.42,.45,.64,.89,.62,.41-.01,.76-.25,.79-.68,.03-.4-.01-.84-.15-1.22-.44-1.16-1.72-1.87-2.88-1.65-1.3,.24-2.29,1.32-2.3,2.49"/><path class="d" d="M33.67,13.53c0,.93,.1,1.87-.02,2.78-.3,2.36-3.16,3.72-5.23,2.56-1.75-.99-2.38-2.74-1.64-4.85,.81-2.32,2.5-3.56,4.95-3.76,.34-.02,.68-.03,1.01-.01,.67,.03,.93,.26,.95,.92,.03,.79,0,1.58,0,2.36h-.04"/><path class="d" d="M18.39,18.36c-1.49,0-2.7-1.17-2.71-2.62-.01-1.53,1.2-2.78,2.71-2.78s2.68,1.2,2.69,2.69c0,1.57-1.12,2.71-2.68,2.71"/><path d="M31.03,24.5c.01-1.17,1-2.24,2.3-2.49,1.16-.22,2.44,.49,2.88,1.65,.14,.38,.18,.82,.15,1.22-.03,.43-.38,.67-.79,.68-.45,.01-.76-.21-.89-.62-.05-.15-.06-.3-.1-.45-.1-.44-.43-.71-.87-.72-.45-.02-.76,.23-.88,.69-.02,.09-.03,.19-.06,.29-.15,.58-.52,.87-1.01,.8-.5-.06-.75-.42-.74-1.05"/></g></g></svg>