<?xml version="1.0" encoding="UTF-8"?><svg xmlns="http://www.w3.org/2000/svg" viewBox="0 0 63.3 63.31"><defs><style>.d{fill:#fff;}</style></defs><g id="a"/><g id="b"><g id="c"><path class="d" d="M0,0H63.3V63.31H0M19.82,14.2c-2.07-.06-3.71,1.38-3.88,3.44-.08,.9-.11,1.8-.11,2.7,0,1.68-.69,2.94-2.17,3.78-.43,.24-.83,.52-1.24,.79-.34,.22-.69,.44-1.02,.67-1.9,1.33-2.28,3.59-.9,5.46,.61,.82,1.26,1.61,1.87,2.44,.75,1.01,.99,2.14,.63,3.36-.2,.7-.47,1.4-.65,2.1-.21,.78-.53,1.59-.48,2.37,.1,1.78,1.22,2.83,2.88,3.32,.86,.25,1.74,.43,2.63,.59,1.61,.29,2.69,1.18,3.28,2.7,.36,.91,.72,1.82,1.17,2.69,1.04,2.03,3.02,2.68,5.08,1.72,.96-.45,1.89-.97,2.85-1.41,.96-.44,1.98-.56,2.97-.14,1.03,.45,2.04,.94,3.03,1.47,2.28,1.23,4.58,.12,5.45-2.01,.36-.86,.75-1.72,1.12-2.58,.56-1.33,1.55-2.11,2.96-2.4,.94-.19,1.88-.39,2.81-.63,1.74-.44,3.59-2.36,2.66-4.91-.31-.86-.57-1.74-.86-2.62-.47-1.42-.2-2.69,.74-3.84,.56-.68,1.11-1.37,1.63-2.07,1.51-2.06,1.05-4.45-1.08-5.82-.81-.52-1.62-1.02-2.43-1.54-.97-.62-1.54-1.5-1.63-2.67-.09-1.18-.14-2.36-.24-3.55-.16-2.07-1.95-3.61-4.02-3.43-.87,.07-1.74,.2-2.61,.34-1.7,.28-3.16-.05-4.28-1.46-.46-.58-1-1.08-1.48-1.64-1.85-2.1-4.22-2.13-6.13-.06-.69,.75-1.37,1.52-2.09,2.24-.74,.76-1.67,1.09-2.73,.98-1.24-.12-2.48-.27-3.71-.41"/><path d="M19.82,14.2c1.24,.14,2.47,.29,3.71,.41,1.06,.11,1.99-.22,2.73-.98,.72-.73,1.39-1.49,2.09-2.24,1.91-2.07,4.28-2.05,6.13,.06,.49,.55,1.03,1.05,1.48,1.63,1.12,1.41,2.58,1.74,4.28,1.46,.87-.14,1.74-.27,2.61-.34,2.07-.18,3.86,1.36,4.02,3.43,.09,1.18,.15,2.36,.24,3.55,.09,1.17,.66,2.04,1.63,2.67,.81,.52,1.62,1.03,2.43,1.54,2.14,1.38,2.59,3.76,1.08,5.82-.52,.7-1.07,1.39-1.63,2.07-.94,1.15-1.21,2.42-.74,3.84,.29,.87,.55,1.76,.86,2.62,.92,2.54-.93,4.46-2.66,4.91-.93,.24-1.87,.44-2.81,.63-1.41,.29-2.4,1.07-2.96,2.4-.37,.86-.76,1.71-1.12,2.58-.87,2.14-3.17,3.24-5.45,2.01-.99-.53-2-1.02-3.03-1.47-.99-.43-2.01-.31-2.97,.14-.96,.44-1.89,.96-2.85,1.41-2.06,.96-4.03,.31-5.08-1.72-.45-.86-.81-1.78-1.17-2.69-.6-1.52-1.68-2.41-3.28-2.71-.88-.16-1.77-.34-2.63-.59-1.66-.48-2.79-1.54-2.88-3.32-.04-.78,.28-1.59,.48-2.37,.19-.71,.45-1.4,.65-2.1,.35-1.22,.12-2.35-.63-3.36-.61-.82-1.26-1.61-1.87-2.44-1.38-1.87-1-4.14,.9-5.46,.33-.23,.68-.45,1.02-.67,.41-.27,.82-.54,1.24-.79,1.47-.83,2.16-2.1,2.17-3.78,0-.9,.04-1.8,.11-2.7,.18-2.07,1.81-3.51,3.88-3.44m-6.1,26.53c-.02,1.29,.49,1.94,1.51,2.19,.79,.2,1.59,.39,2.39,.52,2.28,.37,3.81,1.66,4.69,3.77,.3,.71,.58,1.44,.88,2.16,.7,1.69,1.73,2.05,3.36,1.17,.74-.4,1.46-.82,2.2-1.2,1.69-.85,3.39-.96,5.11-.06,.94,.49,1.87,1.02,2.83,1.46,1.32,.6,2.24,.24,2.82-1.1,.4-.91,.73-1.86,1.12-2.78,.77-1.77,2.11-2.87,3.99-3.3,.92-.2,1.84-.37,2.76-.59,1.45-.34,1.98-1.17,1.62-2.61-.23-.93-.52-1.85-.82-2.76-.63-1.92-.31-3.66,.9-5.26,.56-.73,1.13-1.45,1.68-2.19,.92-1.25,.71-2.37-.59-3.23-.83-.56-1.71-1.05-2.52-1.62-1.32-.93-2.24-2.17-2.4-3.81-.12-1.2-.14-2.41-.21-3.61-.08-1.26-.83-1.94-2.09-1.85-.65,.05-1.31,.11-1.94,.26-2.8,.6-5.07-.22-6.85-2.45-.37-.46-.76-.92-1.17-1.34-1-1.05-2.14-1.06-3.15-.02-.57,.58-1.12,1.19-1.64,1.82-1.55,1.85-3.53,2.47-5.87,2.07-.82-.15-1.66-.27-2.49-.34-1.18-.1-1.97,.6-2.05,1.77-.06,.9-.09,1.8-.12,2.7-.06,2.26-.97,4.01-2.96,5.16-.74,.43-1.46,.89-2.18,1.36-1.21,.8-1.4,1.84-.54,3.03,.56,.78,1.17,1.53,1.76,2.28,1.06,1.34,1.46,2.85,1.08,4.54-.15,.65-.38,1.29-.56,1.94-.21,.74-.42,1.48-.55,1.93"/><path class="d" d="M13.72,40.72c.13-.45,.33-1.19,.55-1.93,.19-.65,.41-1.29,.56-1.94,.39-1.69-.02-3.2-1.08-4.54-.59-.76-1.2-1.51-1.77-2.28-.86-1.18-.66-2.22,.55-3.03,.71-.47,1.44-.93,2.18-1.36,1.99-1.16,2.9-2.91,2.96-5.16,.02-.9,.06-1.8,.12-2.7,.08-1.17,.87-1.87,2.05-1.77,.83,.07,1.66,.19,2.49,.34,2.35,.4,4.32-.21,5.87-2.07,.52-.63,1.08-1.23,1.64-1.82,1.01-1.04,2.15-1.03,3.15,.02,.41,.42,.8,.88,1.17,1.34,1.78,2.23,4.05,3.06,6.85,2.45,.63-.14,1.29-.21,1.94-.26,1.26-.09,2.01,.59,2.09,1.85,.07,1.2,.09,2.41,.21,3.61,.17,1.65,1.08,2.88,2.4,3.81,.82,.57,1.69,1.07,2.53,1.62,1.3,.86,1.5,1.98,.59,3.23-.54,.74-1.12,1.46-1.68,2.19-1.22,1.6-1.53,3.34-.9,5.26,.3,.91,.59,1.82,.82,2.76,.36,1.44-.17,2.27-1.62,2.61-.91,.22-1.84,.39-2.76,.59-1.88,.43-3.23,1.53-3.99,3.3-.39,.92-.72,1.86-1.12,2.78-.59,1.34-1.5,1.7-2.83,1.1-.96-.44-1.89-.97-2.83-1.46-1.71-.9-3.42-.79-5.11,.06-.75,.38-1.47,.8-2.2,1.2-1.62,.89-2.66,.52-3.36-1.17-.29-.72-.58-1.44-.88-2.16-.88-2.1-2.4-3.4-4.69-3.77-.8-.14-1.6-.32-2.39-.52-1.02-.25-1.53-.9-1.51-2.19m14.58-3.1c1.33-.02,2.04-.53,2.69-1.18,3.07-3.08,6.15-6.16,9.23-9.23,.13-.13,.26-.26,.37-.4,.3-.38,.28-.77-.04-1.11-.33-.35-.74-.45-1.14-.11-.39,.33-.76,.68-1.12,1.04-2.85,2.84-5.7,5.69-8.55,8.52-.93,.92-1.18,.91-2.12-.01-1.32-1.28-2.62-2.58-3.96-3.83-.23-.22-.66-.4-.95-.35-.75,.12-.9,.9-.26,1.56,1.43,1.48,2.88,2.96,4.39,4.36,.46,.43,1.16,.61,1.46,.76"/><path d="M28.3,37.62c-.3-.15-1-.32-1.46-.76-1.51-1.4-2.96-2.88-4.39-4.36-.64-.66-.5-1.44,.26-1.56,.3-.05,.72,.13,.95,.35,1.34,1.26,2.64,2.56,3.96,3.83,.94,.92,1.19,.93,2.12,.01,2.86-2.83,5.7-5.68,8.55-8.52,.36-.36,.73-.71,1.12-1.04,.4-.34,.81-.24,1.14,.11,.32,.34,.34,.73,.04,1.11-.11,.14-.24,.27-.37,.4-3.08,3.08-6.16,6.15-9.23,9.23-.65,.65-1.36,1.17-2.69,1.18"/></g></g></svg>