<?xml version="1.0" encoding="UTF-8" standalone="no"?>
<svg
   inkscape:export-ydpi="576"
   inkscape:export-xdpi="576"
   inkscape:export-filename="/media/taufikramadhan/Data/Tr Design Studio/Project Design/TR Creative Design/Icon Design/Project Hiring/Icon Icons/007 - Design And Development/Send/1 - Line/SVG/10. Content Design.png"
   width="64pt"
   height="64pt"
   viewBox="0 0 22.577778 22.577778"
   version="1.1"
   id="svg831"
   inkscape:version="1.1 (1:1.1+202106031931+af4d65493e)"
   sodipodi:docname="21 - User Target.svg"
   xmlns:inkscape="http://www.inkscape.org/namespaces/inkscape"
   xmlns:sodipodi="http://sodipodi.sourceforge.net/DTD/sodipodi-0.dtd"
   xmlns="http://www.w3.org/2000/svg"
   xmlns:svg="http://www.w3.org/2000/svg"
   xmlns:rdf="http://www.w3.org/1999/02/22-rdf-syntax-ns#"
   xmlns:cc="http://creativecommons.org/ns#"
   xmlns:dc="http://purl.org/dc/elements/1.1/">
  <defs
     id="defs825">
    <pattern
       id="EMFhbasepattern"
       patternUnits="userSpaceOnUse"
       width="6"
       height="6"
       x="0"
       y="0" />
    <pattern
       id="EMFhbasepattern-9"
       patternUnits="userSpaceOnUse"
       width="6"
       height="6"
       x="0"
       y="0" />
    <pattern
       id="EMFhbasepattern-0"
       patternUnits="userSpaceOnUse"
       width="6"
       height="6"
       x="0"
       y="0" />
    <pattern
       id="EMFhbasepattern-7"
       patternUnits="userSpaceOnUse"
       width="6"
       height="6"
       x="0"
       y="0" />
    <pattern
       id="EMFhbasepattern-2"
       patternUnits="userSpaceOnUse"
       width="6"
       height="6"
       x="0"
       y="0" />
    <pattern
       id="EMFhbasepattern-98"
       patternUnits="userSpaceOnUse"
       width="6"
       height="6"
       x="0"
       y="0" />
    <pattern
       id="EMFhbasepattern-6"
       patternUnits="userSpaceOnUse"
       width="6"
       height="6"
       x="0"
       y="0" />
    <pattern
       id="EMFhbasepattern-01"
       patternUnits="userSpaceOnUse"
       width="6"
       height="6"
       x="0"
       y="0" />
    <pattern
       id="EMFhbasepattern-07"
       patternUnits="userSpaceOnUse"
       width="6"
       height="6"
       x="0"
       y="0" />
    <pattern
       id="EMFhbasepattern-8"
       patternUnits="userSpaceOnUse"
       width="6"
       height="6"
       x="0"
       y="0" />
    <pattern
       id="EMFhbasepattern-4"
       patternUnits="userSpaceOnUse"
       width="6"
       height="6"
       x="0"
       y="0" />
    <pattern
       id="EMFhbasepattern-40"
       patternUnits="userSpaceOnUse"
       width="6"
       height="6"
       x="0"
       y="0" />
    <pattern
       id="EMFhbasepattern-08"
       patternUnits="userSpaceOnUse"
       width="6"
       height="6"
       x="0"
       y="0" />
    <pattern
       id="EMFhbasepattern-04"
       patternUnits="userSpaceOnUse"
       width="6"
       height="6"
       x="0"
       y="0" />
    <pattern
       id="EMFhbasepattern-014"
       patternUnits="userSpaceOnUse"
       width="6"
       height="6"
       x="0"
       y="0" />
    <pattern
       id="EMFhbasepattern-27"
       patternUnits="userSpaceOnUse"
       width="6"
       height="6"
       x="0"
       y="0" />
    <pattern
       id="EMFhbasepattern-09"
       patternUnits="userSpaceOnUse"
       width="6"
       height="6"
       x="0"
       y="0" />
    <pattern
       id="EMFhbasepattern-5"
       patternUnits="userSpaceOnUse"
       width="6"
       height="6"
       x="0"
       y="0" />
    <pattern
       id="EMFhbasepattern-018"
       patternUnits="userSpaceOnUse"
       width="6"
       height="6"
       x="0"
       y="0" />
  </defs>
  <sodipodi:namedview
     id="base"
     pagecolor="#ffffff"
     bordercolor="#666666"
     borderopacity="1.0"
     inkscape:pageopacity="0.0"
     inkscape:pageshadow="2"
     inkscape:zoom="4.2757863"
     inkscape:cx="42.682208"
     inkscape:cy="42.56527"
     inkscape:document-units="pt"
     inkscape:current-layer="layer1"
     showgrid="false"
     units="pt"
     inkscape:window-width="1366"
     inkscape:window-height="705"
     inkscape:window-x="0"
     inkscape:window-y="31"
     inkscape:window-maximized="1"
     inkscape:pagecheckerboard="true"
     inkscape:showpageshadow="false"
     inkscape:object-paths="true"
     inkscape:snap-intersection-paths="true"
     inkscape:snap-smooth-nodes="true"
     inkscape:snap-midpoints="true"
     showguides="false"
     inkscape:snap-bbox="true"
     inkscape:bbox-nodes="true"
     inkscape:snap-nodes="false"
     inkscape:snap-global="true"
     inkscape:document-rotation="0">
    <inkscape:grid
       type="xygrid"
       id="grid1378" />
    <sodipodi:guide
       position="0.97013831,21.607643"
       orientation="78.000048,0"
       id="guide1380"
       inkscape:locked="false" />
    <sodipodi:guide
       position="0.97013831,0.97013129"
       orientation="0,78.000005"
       id="guide1382"
       inkscape:locked="false" />
    <sodipodi:guide
       position="21.607639,0.97013129"
       orientation="-78.000048,0"
       id="guide1384"
       inkscape:locked="false" />
    <sodipodi:guide
       position="21.607639,21.607643"
       orientation="0,-78.000005"
       id="guide1386"
       inkscape:locked="false" />
  </sodipodi:namedview>
  <metadata
     id="metadata828">
    <rdf:RDF>
      <cc:Work
         rdf:about="">
        <dc:format>image/svg+xml</dc:format>
        <dc:type
           rdf:resource="http://purl.org/dc/dcmitype/StillImage" />
      </cc:Work>
    </rdf:RDF>
  </metadata>
  <g
     inkscape:label="Icon"
     inkscape:groupmode="layer"
     id="layer1"
     transform="translate(0,-274.42223)">
    <path
       id="path2701"
       style="color:#000000;clip-rule:evenodd;display:inline;fill:#000000;fill-rule:evenodd;stroke-width:1;stroke-linecap:round;stroke-linejoin:round;stroke-miterlimit:1.5;-inkscape-stroke:none"
       d="m 13.683029,275.39306 c -0.11623,-0.003 -0.224969,0.0573 -0.286138,0.15608 0,0 -0.303431,0.50335 -0.951415,0.50335 -0.367916,0 -0.85532,-0.0797 -1.33705,-0.14243 -0.481723,-0.0628 -0.955831,-0.11792 -1.3793223,-0.0126 -0.8367805,0.20919 -1.3448076,0.76848 -1.5529547,1.40598 -0.1287334,0.39427 -0.157675,0.81247 -0.1248624,1.22065 -2.9302565,1.1244 -5.1089381,3.76577 -5.5719153,6.96164 H 1.6801336 c -0.1821403,-1.2e-4 -0.3298191,0.14757 -0.3297093,0.32971 v 1.31689 c -1.098e-4,0.18214 0.1475723,0.32981 0.3297093,0.32971 h 0.7374612 c 0.336991,4.26453 3.7147627,7.68295 7.9631262,8.07888 v 0.15998 c 2.49e-4,0.18164 0.147429,0.32881 0.32906,0.32907 h 1.31754 c 0.181888,1e-4 0.329464,-0.14718 0.329713,-0.32907 v -0.17624 c 4.172961,-0.46571 7.470393,-3.85175 7.803152,-8.06263 h 0.738106 c 0.181885,-2.4e-4 0.32917,-0.14782 0.329061,-0.3297 v -1.31689 c 1.09e-4,-0.18188 -0.147176,-0.32946 -0.329061,-0.32971 h -0.801838 c -0.458614,-3.16575 -2.600819,-5.78772 -5.489325,-6.92978 0.03374,-0.62829 0.101669,-1.20041 0.09234,-1.69733 -0.0063,-0.32867 -0.04378,-0.63461 -0.189243,-0.90459 -0.145478,-0.26998 -0.419969,-0.47482 -0.75957,-0.55277 -0.02221,-0.005 -0.04485,-0.008 -0.06763,-0.009 z m -4.8269313,3.82649 c -0.014321,-0.0292 -0.025672,-0.0449 -0.043567,-0.11703 -0.1325149,-0.53498 -0.163874,-1.13104 -0.012333,-1.59523 0.1515615,-0.4642 0.4427505,-0.80881 1.0886296,-0.97028 0.2354677,-0.0589 0.6699237,-0.0341 1.1354547,0.0267 0.465521,0.0607 0.965148,0.14761 1.42094,0.14761 0.706778,0 1.077142,-0.33872 1.287627,-0.57747 l 2.8e-4,-4e-5 c 0.0677,0.0386 0.158051,0.0642 0.196398,0.13527 0.06393,0.11855 0.105923,0.32322 0.111196,0.60219 0.01007,0.55796 -0.113159,1.37418 -0.113159,2.30993 0,0.0945 -9.99e-4,0.13978 -0.01754,0.18469 -0.200903,-0.25903 -0.429568,-0.67441 -0.493653,-0.79321 -0.09977,-0.21173 -0.277421,-0.24695 -0.478794,-0.17045 -1.049685,0.52969 -2.050979,0.49611 -3.1138848,0.005 -0.1992337,-0.0813 -0.4026038,-0.019 -0.4922072,0.16623 -0.04996,0.0881 -0.2241835,0.38687 -0.3960423,0.56903 z m 0.4555212,0.48061 c 0.128308,-0.11137 0.2338835,-0.24315 0.324505,-0.36873 0.045845,-0.0636 0.07275,-0.10609 0.094295,-0.14306 0.030568,-0.0462 0.056844,-0.0886 0.081283,-0.12877 l -1.01e-5,-6e-5 c 1.0255942,0.40744 2.0803152,0.42969 3.1163172,0.003 0.0468,0.0853 0.104715,0.1872 0.171685,0.29589 0.002,0.003 0.0039,0.006 0.0059,0.009 0.09433,0.15248 0.204434,0.31547 0.320605,0.45653 l 0.02927,0.0345 0.01495,0.94166 c 0.0038,0.30509 -0.133888,0.59316 -0.371329,0.78363 -0.339768,0.27257 -0.795113,0.63972 -1.18683,0.95401 -0.362003,0.29046 -0.871342,0.28953 -1.2343,0 -0.395038,-0.31497 -0.8569189,-0.68093 -1.1991842,-0.95401 -0.23951,-0.19103 -0.3757714,-0.48038 -0.3713329,-0.78623 l 0.016246,-0.95532 c 0.066232,-0.0424 0.1290391,-0.0892 0.1879593,-0.14112 z m -1.1543226,-0.50991 c 0.00541,0.0232 0.010571,0.0466 0.016246,0.0696 0.042586,0.17191 0.097491,0.31435 0.1918429,0.43505 0.028365,0.0362 0.061789,0.0704 0.099492,0.10017 l -0.011703,0.70105 c -2.1691925,0.95573 -3.749537,3.0052 -4.0410688,5.44575 l -0.5989422,-0.39929 c -0.054346,-0.0367 -0.118428,-0.0565 -0.1840383,-0.0566 H 3.1472314 c 0.4502681,-2.86689 2.39523,-5.24003 5.010041,-6.29572 z m 6.4303317,0.0709 c 2.530042,1.08806 4.402322,3.41961 4.842907,6.22484 h -0.483833 c -0.06495,4.9e-4 -0.128297,0.0201 -0.18209,0.0566 l -0.601543,0.40124 c -0.290839,-2.44061 -1.869802,-4.49003 -4.038469,-5.4464 l -0.0052,-0.2998 c 0.02248,-0.004 0.04508,-0.0101 0.06828,-0.0183 0.19819,-0.0709 0.29102,-0.24729 0.336862,-0.40774 0.04067,-0.14246 0.05936,-0.30519 0.06309,-0.5105 z m -9.224157,9.52128 c -0.2147477,-0.62057 -0.333299,-1.28625 -0.3381628,-1.97891 h 0.2529715 c 0.1816406,-2.2e-4 0.328829,-0.14742 0.3290631,-0.32905 1.258e-4,-0.1819 -0.1471695,-0.32949 -0.3290631,-0.32971 H 5.0558706 c 0.214983,-2.17887 1.5595075,-4.02422 3.4395256,-4.94372 l 6.29e-5,1e-5 c 0.085498,0.34985 0.2850089,0.66584 0.5729311,0.89548 0.1825706,0.14567 0.4163069,0.3327 0.6379597,0.50986 l -0.1437201,1.29218 c -0.103104,-0.0364 -0.2332934,-0.0734 -0.3739328,-0.0911 -0.1636915,-0.0206 -0.3621298,-0.0247 -0.5553683,0.0956 -0.1811611,0.11275 -0.2947479,0.34227 -0.3082522,0.58333 -0.5135453,0.0922 -0.9565903,0.34085 -1.311688,0.68283 -0.4350123,0.41895 -0.7461452,0.97386 -0.9585685,1.57767 z m 11.159499,-2.03555 c -0.212426,-0.60381 -0.523563,-1.15872 -0.958568,-1.57767 -0.354638,-0.34154 -0.798387,-0.58964 -1.311688,-0.68217 -0.01331,-0.24132 -0.126884,-0.47111 -0.308249,-0.58399 -0.193249,-0.12031 -0.391673,-0.11616 -0.555371,-0.0956 -0.141513,0.0177 -0.27249,0.055 -0.375885,0.0917 l -0.143067,-1.28633 c 0.223191,-0.17939 0.458133,-0.36896 0.641861,-0.51635 0.286085,-0.22952 0.48426,-0.54518 0.569678,-0.89419 v 7e-5 c 1.879169,0.91984 3.224952,2.76435 3.440175,4.94241 h -0.222408 c -0.181895,2.2e-4 -0.329186,0.14781 -0.32906,0.32971 2.32e-4,0.18163 0.147422,0.32883 0.32906,0.32905 h 0.252974 c -0.0049,0.69316 -0.123767,1.35926 -0.338816,1.98022 z m -6.206624,-3.65536 c 0.576804,0.42433 1.367556,0.42662 1.945747,0.006 l 0.133316,1.20048 -1.107489,0.88508 -1.105538,-0.88443 z m -1.2115227,1.36957 c 0.1572886,0.0198 0.3437604,0.10533 0.3667772,0.11578 l 1.3220965,1.05677 -0.646416,0.64641 c -0.129525,-0.13582 -0.2487397,-0.25082 -0.4961905,-0.56057 -0.1786732,-0.22366 -0.3562554,-0.46813 -0.4818855,-0.68804 -0.12563,-0.2199 -0.187291,-0.42212 -0.187291,-0.49685 -0.00138,-0.0237 -0.00239,-0.0473 0.00264,-0.0709 0.040106,-0.005 0.080213,-0.009 0.1203068,-0.003 z m 4.4884697,0.003 c 9.98e-4,0.0101 0.0026,0.031 0.0026,0.0709 0,0.0747 -0.06366,0.27694 -0.189242,0.49684 -0.125592,0.21991 -0.303212,0.46438 -0.481883,0.68804 -0.247448,0.30975 -0.367324,0.42475 -0.496843,0.56057 l -0.646416,-0.64642 1.322746,-1.05676 c 0.02304,-0.0101 0.208846,-0.096 0.366129,-0.11578 0.04095,-7e-5 0.0819,3.3e-4 0.122849,0.003 z m 0.271198,7.95403 c -0.492212,0.21734 -1.017739,0.37248 -1.567263,0.45521 l -0.598942,-0.89861 v -0.55797 c -2.34e-4,-0.1819 -0.147819,-0.3292 -0.32971,-0.32906 -0.181637,2.3e-4 -0.328826,0.14742 -0.329059,0.32906 v 0.56187 l -0.609354,0.91565 c -0.6036775,-0.0759 -1.1802051,-0.23972 -1.7168365,-0.47668 l 0.2490729,-3.52732 c 0.012823,-0.1811 -0.1233019,-0.33843 -0.3043511,-0.35182 -0.1823102,-0.0143 -0.3413933,0.12257 -0.3544219,0.30499 l -0.037074,0.52676 -1.5392968,1.64985 C 6.3467163,290.61999 6.019561,290.16845 5.7563307,289.6778 l 0.9201975,-2.71182 c 0.1870922,-0.5318 0.4566311,-0.99778 0.7940388,-1.32274 0.2843797,-0.27387 0.6099569,-0.45394 1.0066913,-0.5144 0.036696,0.0766 0.077835,0.15293 0.121603,0.22955 0.1523669,0.26672 0.3464749,0.53097 0.5384637,0.77129 0.3839814,0.48066 0.764122,0.86296 0.764122,0.86296 0.128786,0.12931 0.338139,0.12931 0.466925,0 l 0.919548,-0.91954 0.9215,0.91954 c 0.128491,0.12757 0.335836,0.12757 0.464325,0 0,0 0.383386,-0.3823 0.767375,-0.86296 0.191987,-0.24032 0.38544,-0.50457 0.537811,-0.77129 0.04388,-0.0768 0.08484,-0.15331 0.121615,-0.2302 h -10e-6 c 0.396738,0.0604 0.722306,0.24117 1.006689,0.51504 0.3374,0.32495 0.606947,0.79031 0.794038,1.3221 l 0.920197,2.71247 c -0.26352,0.49121 -0.591147,0.94316 -0.972222,1.34355 l -1.5406,-1.6531 -0.03707,-0.52481 c -0.01305,-0.18104 -0.170087,-0.31741 -0.351172,-0.30499 -0.181312,0.0131 -0.317792,0.17049 -0.304997,0.35182 z M 2.0092001,286.14463 h 1.5191398 l 0.4961935,0.32971 -0.4942423,0.32906 h -1.521091 z m 17.0402509,0 h 1.516539 v 0.65877 h -1.518491 l -0.494242,-0.32906 z m -0.284839,1.26356 c 0.05409,0.0355 0.117412,0.0542 0.18209,0.054 h 0.552767 c -0.329047,3.84978 -3.332372,6.93956 -7.142428,7.39995 v -1.33119 c 0.700463,-0.10156 1.367053,-0.30939 1.982163,-0.60674 h 6.66e-4 c 0.0026,-0.001 0.0052,-0.003 0.0078,-0.004 0.0026,-10e-4 0.0057,-0.003 0.0084,-0.004 0.0055,-0.003 0.01095,-0.005 0.01625,-0.009 0.608651,-0.29833 1.166193,-0.68467 1.657009,-1.14196 0.01282,-0.009 0.02497,-0.0186 0.03642,-0.0293 0.0112,-0.0101 0.02161,-0.0218 0.0312,-0.0339 0.546089,-0.52268 1.005363,-1.13535 1.355259,-1.81308 0.01459,-0.0215 0.0266,-0.0447 0.03577,-0.069 v -6.7e-4 c 0.423566,-0.84402 0.678128,-1.78723 0.71795,-2.78466 z m -14.3947602,-0.3712 c 0.040421,1.00686 0.2989999,1.95866 0.7303058,2.80871 0.00264,0.005 0.00554,0.0101 0.00843,0.0156 0.3530502,0.69137 0.8196607,1.31573 1.3760697,1.84691 0.00856,0.0101 0.017643,0.0191 0.027308,0.0279 0.00692,0.006 0.014082,0.0113 0.021482,0.0169 1.0343165,0.96857 2.3684525,1.62077 3.8472737,1.79943 v 1.32729 c -3.8857744,-0.39206 -6.9705924,-3.51402 -7.304357,-7.41752 h 0.5527704 c 0.065341,6.6e-4 0.1294025,-0.0181 0.1840382,-0.054 z m 10.0129232,3.3771 0.987183,1.06001 c -0.270514,0.22972 -0.56126,0.43613 -0.868824,0.61715 z m -6.1890633,6.5e-4 -0.11706,1.67652 C 7.768558,291.90994 7.4774419,291.70301 7.2065275,291.47281 Z m 3.1748483,2.25596 0.329708,0.49358 v 2.20718 H 11.0395 v -2.20457 z"
       sodipodi:nodetypes="scsscscccccccccccccccccccccscsscccccsccscsccccccccscccccccccsscccccsssccccccsssccccccccssccccccccccccscscccscccccscccccccccccccccccccsscccccsscccccccccccccccccccccccsscccccssssscccccccccccccccccccccccccccssccccccccccccccccccccccccccccccccccccc" />
  </g>
</svg>
