<?xml version="1.0" ?><svg height="96" viewBox="0 0 96 96" width="96" xmlns="http://www.w3.org/2000/svg"><defs><style>.cls-1{fill:#ebf4ff;}.cls-2{fill:none;stroke:#283d54;stroke-linecap:round;stroke-linejoin:round;stroke-width:2px;}.cls-3{fill:#fc9a9a;}.cls-4{fill:#fff;}</style></defs><title/><g data-name="5.Emoji-Happy" id="_5.Emoji-Happy"><circle class="cls-1" cx="48" cy="48" r="47"/><path class="cls-2" d="M84.989,19A47.042,47.042,0,1,1,82,15.55"/><g data-name="&lt;Group&gt;" id="_Group_"><path class="cls-3" d="M48,71c14.25,0,15.81,2.38,15.98,2.9a23.981,23.981,0,0,1-31.96,0C32.19,73.38,33.75,71,48,71Z"/><path class="cls-4" d="M72,51.09V56a23.936,23.936,0,0,1-8.02,17.9C63.81,73.38,62.25,71,48,71s-15.81,2.38-15.98,2.9A23.936,23.936,0,0,1,24,56V51.09C27.12,53.75,34.25,58,48,58S68.88,53.75,72,51.09Z"/><path class="cls-2" d="M72,56a24,24,0,0,1-48,0"/><path class="cls-2" d="M74,49a11.849,11.849,0,0,1-2,2.09C68.88,53.75,61.75,58,48,58s-20.88-4.25-24-6.91A11.849,11.849,0,0,1,22,49"/><path class="cls-2" d="M32,74a.35.35,0,0,1,.02-.1C32.19,73.38,33.75,71,48,71"/><path class="cls-2" d="M64,74a.35.35,0,0,0-.02-.1C63.81,73.38,62.25,71,48,71"/></g><path class="cls-2" d="M18,38a9,9,0,0,1,18,0"/><path class="cls-2" d="M60,38a9,9,0,0,1,18,0"/></g></svg>